<?xml version="1.0" encoding="UTF-8"?><svg id="Layer_1" xmlns="http://www.w3.org/2000/svg" viewBox="0 0 100.34 100.34"><defs><style>.cls-1{fill:#012c3e;}.cls-1,.cls-2,.cls-3{stroke-width:0px;}.cls-2{fill:#f37455;}.cls-3{fill:#fff;}</style></defs><path class="cls-2" d="M49.84,97.11c-25.97,0-47.11-21.13-47.11-47.11S23.87,2.9,49.84,2.9s47.11,21.13,47.11,47.11-21.13,47.11-47.11,47.11ZM49.84,6.44C25.82,6.44,6.28,25.99,6.28,50.01s19.54,43.56,43.56,43.56,43.56-19.54,43.56-43.56S73.86,6.44,49.84,6.44Z"/><circle class="cls-2" cx="49.84" cy="50.01" r="40.65" transform="translate(-20.76 49.89) rotate(-45)"/><path class="cls-3" d="M23.4,31.96c-4.61,0-8.37,3.92-8.37,8.75v8.72h1.82v-8.72c0-3.82,2.94-6.93,6.55-6.93s6.08,2.98,6.08,6.93v8.48h1.82v-8.48c0-4.99-3.4-8.75-7.9-8.75Z"/><path class="cls-3" d="M38.62,40.35c0,4.91,3.92,8.9,8.75,8.9h3.92v-1.82h-3.92c-3.82,0-6.93-3.18-6.93-7.08s2.98-6.58,6.93-6.58h3.92v-1.82h-3.92c-4.99,0-8.75,3.61-8.75,8.4Z"/><path class="cls-1" d="M24.56,60.94c0,4.86,3.88,8.81,8.65,8.81h3.88v-1.8h-3.88c-3.78,0-6.85-3.14-6.85-7.01s2.94-6.51,6.85-6.51h3.88v-1.8h-3.88c-4.93,0-8.65,3.57-8.65,8.31Z"/><path class="cls-3" d="M77.9,33.68h3.92v-1.82h-3.92c-4.99,0-8.74,3.61-8.74,8.4,0,2.37.91,4.61,2.55,6.29,1.65,1.69,3.85,2.61,6.19,2.61h3.92v-1.82h-3.92c-1.85,0-3.58-.73-4.89-2.07-1.03-1.05-1.69-2.37-1.93-3.8h7.59v-1.82h-7.66c.3-3.45,3.16-5.98,6.9-5.98Z"/><rect class="cls-3" x="34.11" y="32.17" width="1.82" height="17"/><polygon class="cls-3" points="55.79 32.17 53.97 32.17 53.97 49.19 55.79 49.19 55.79 41.94 63.27 41.94 63.27 40.12 55.79 40.12 55.79 32.17"/><rect class="cls-3" x="64.91" y="32.17" width="1.82" height="16.85"/><path class="cls-1" d="M63.69,69.68h1.82v-12.27c0-1.58,1.17-2.86,2.61-2.86s2.67,1.28,2.67,2.86v12.27h1.73v-12.27c0-2.6-2.01-4.71-4.41-4.71-1.45,0-2.73.78-3.52,1.96-.79-1.19-2.07-1.96-3.52-1.96-2.4,0-4.28,2.11-4.28,4.71v12.27h1.73v-12.27c0-1.58,1.11-2.86,2.55-2.86s2.61,1.28,2.61,2.86v12.27Z"/><path class="cls-1" d="M52.97,68.28l-5.19-6.2h1.05c2.74,0,4.97-2.12,4.97-4.73s-2.23-4.73-4.97-4.73h-6.63v1.89h6.63c1.66,0,3.02,1.27,3.02,2.84s-1.35,2.84-3.02,2.84h-7.37v-.02h-1.95v9.53h1.95v-7.63h3.81l6.42,7.66h0s2.56,0,2.56,0l-1.28-1.46Z"/></svg>