
<svg width="277" height="35" viewBox="0 0 277 35" fill="none" xmlns="http://www.w3.org/2000/svg">
<path d="M27.672 33.272V31.544C27.672 24.848 22.272 19.448 15.576 19.448C10.662 19.448 6.342 17.234 3.48 13.67V33.272C3.48 34.244 2.724 35 1.752 35C0.78 35 0.0240001 34.244 0.0240001 33.272V2.168C0.0240001 1.196 0.78 0.439998 1.752 0.439998C2.724 0.439998 3.48 1.196 3.48 2.168V3.896C3.48 10.592 8.88 15.992 15.576 15.992C20.436 15.992 24.81 18.26 27.672 21.77V2.168C27.672 1.196 28.428 0.439998 29.4 0.439998C30.372 0.439998 31.128 1.196 31.128 2.168V33.272C31.128 34.244 30.372 35 29.4 35C28.428 35 27.672 34.244 27.672 33.272ZM37.2017 33.272V2.168C37.2017 1.196 37.9577 0.439998 38.9297 0.439998C39.9017 0.439998 40.6577 1.196 40.6577 2.168V33.272C40.6577 34.244 39.9017 35 38.9297 35C37.9577 35 37.2017 34.244 37.2017 33.272ZM72.4519 27.494C72.7759 27.17 73.2079 26.954 73.6399 26.954C74.6119 26.954 75.3679 27.71 75.3679 28.682C75.3679 29.114 75.2059 29.6 74.8819 29.924C71.4799 33.326 67.1059 35 62.6779 35C53.1199 35 45.3979 27.278 45.3979 17.72C45.3979 8.162 53.1199 0.439998 62.6779 0.439998C67.1059 0.439998 71.4799 2.168 74.8819 5.516C75.2059 5.894 75.3679 6.326 75.3679 6.758C75.3679 7.73 74.6119 8.486 73.6399 8.486C73.2079 8.486 72.7219 8.324 72.4519 7.946C69.7519 5.246 66.1879 3.896 62.6779 3.896C55.0639 3.896 48.8539 10.106 48.8539 17.72C48.8539 25.334 55.0639 31.544 62.6779 31.544C66.1879 31.544 69.7519 30.194 72.4519 27.494ZM107.617 33.272V19.448H83.4253V33.272C83.4253 34.244 82.6693 35 81.6973 35C80.7253 35 79.9693 34.244 79.9693 33.272V2.168C79.9693 1.196 80.7253 0.439998 81.6973 0.439998C82.6693 0.439998 83.4253 1.196 83.4253 2.168V15.992H107.617V2.168C107.617 1.196 108.373 0.439998 109.345 0.439998C110.317 0.439998 111.073 1.196 111.073 2.168V33.272C111.073 34.244 110.317 35 109.345 35C108.373 35 107.617 34.244 107.617 33.272ZM120.603 3.896V31.544H143.067C144.039 31.544 144.795 32.3 144.795 33.272C144.795 34.244 144.039 35 143.067 35H118.875C117.903 35 117.147 34.244 117.147 33.272V2.168C117.147 1.196 117.903 0.439998 118.875 0.439998H143.067C144.039 0.439998 144.795 1.196 144.795 2.168C144.795 3.14 144.039 3.896 143.067 3.896H120.603ZM139.611 19.448H125.787C124.815 19.448 124.059 18.692 124.059 17.72C124.059 16.748 124.815 15.992 125.787 15.992H139.611C140.583 15.992 141.339 16.748 141.339 17.72C141.339 18.692 140.583 19.448 139.611 19.448ZM191.262 27.494C191.586 27.17 192.018 26.954 192.45 26.954C193.422 26.954 194.178 27.71 194.178 28.682C194.178 29.114 194.016 29.6 193.692 29.924C190.29 33.326 185.916 35 181.488 35C171.93 35 164.208 27.278 164.208 17.72C164.208 8.162 171.93 0.439998 181.488 0.439998C185.916 0.439998 190.29 2.168 193.692 5.516C194.016 5.894 194.178 6.326 194.178 6.758C194.178 7.73 193.422 8.486 192.45 8.486C192.018 8.486 191.532 8.324 191.262 7.946C188.562 5.246 184.998 3.896 181.488 3.896C173.874 3.896 167.664 10.106 167.664 17.72C167.664 25.334 173.874 31.544 181.488 31.544C184.998 31.544 188.562 30.194 191.262 27.494ZM210.876 19.448V17.72C210.876 16.748 211.632 15.992 212.604 15.992H218.652C222 15.992 224.7 13.292 224.7 9.944C224.7 6.596 222 3.896 218.652 3.896H202.236V33.272C202.236 34.244 201.48 35 200.508 35C199.536 35 198.78 34.244 198.78 33.272V2.168C198.78 1.196 199.536 0.439998 200.508 0.439998H218.652C223.89 0.439998 228.156 4.706 228.156 9.944C228.156 15.182 223.89 19.448 218.652 19.448H214.332C214.332 26.144 219.732 31.544 226.428 31.544C227.4 31.544 228.156 32.3 228.156 33.272C228.156 34.244 227.4 35 226.428 35C217.842 35 210.876 28.034 210.876 19.448ZM262.275 3.896H246.723C240.999 3.896 236.355 8.54 236.355 14.264V33.272C236.355 34.244 235.599 35 234.627 35C233.655 35 232.899 34.244 232.899 33.272V14.264C232.899 6.65 239.109 0.439998 246.723 0.439998H262.275C269.889 0.439998 276.099 6.65 276.099 14.264V33.272C276.099 34.244 275.343 35 274.371 35C273.399 35 272.643 34.244 272.643 33.272V14.264C272.643 8.54 267.999 3.896 262.275 3.896ZM252.771 33.272V9.08C252.771 8.108 253.527 7.352 254.499 7.352C255.471 7.352 256.227 8.108 256.227 9.08V33.272C256.227 34.244 255.471 35 254.499 35C253.527 35 252.771 34.244 252.771 33.272Z" fill="#F07659"/>
</svg>
